<svg xmlns="http://www.w3.org/2000/svg" width="11.455" height="15.273" viewBox="0 0 11.455 15.273">
  <path id="icon-flag" d="M75.2,1.845a.443.443,0,0,0-.445,0,3.548,3.548,0,0,1-1.744.445,3.324,3.324,0,0,1-2.393-.942A3.838,3.838,0,0,0,67.849.255a3.986,3.986,0,0,0-2.324.723V.764A.764.764,0,1,0,64,.764V14.509a.764.764,0,1,0,1.527,0V7.891a.445.445,0,0,0,.232-.092,3.452,3.452,0,0,1,2.092-.672,3.329,3.329,0,0,1,2.4.942,3.836,3.836,0,0,0,2.762,1.095,3.978,3.978,0,0,0,2.225-.649.509.509,0,0,0,.219-.433V2.291A.509.509,0,0,0,75.2,1.845Z" transform="translate(-63.998)" fill="#1f2345"/>
</svg>
