<svg xmlns="http://www.w3.org/2000/svg" width="19.624" height="19.624" viewBox="0 0 19.624 19.624">
  <path id="icon-city" d="M18.164,18.474V12.341H11.558v6.134h-1.15V11.191h3.878V4.633H12.993V2.064H11.53V0h-1.15V2.064H8.918V4.633H7.625V18.474H6.475V7.2H1.46V18.474H0v1.15H19.624v-1.15Zm-6.5-12.422h1.15V7.2h-1.15Zm0,2.569h1.15v1.15h-1.15Zm-7.148,9.4H3.367v-1.15h1.15Zm0-2.751H3.367v-1.15h1.15Zm0-2.751H3.367v-1.15h1.15Zm0-2.751H3.367V8.622h1.15Zm5.728,0H9.1V8.622h1.15Zm0-2.569H9.1V6.052h1.15Zm.135-3.719h1.15v1.15h-1.15Zm3.762,14.991h-1.15V13.859h1.15Zm2.585,0h-1.15V13.859h1.15Z" transform="translate(0 0)" fill="#1f2345"/>
</svg>
